<svg xmlns="http://www.w3.org/2000/svg" xmlns:xlink="http://www.w3.org/1999/xlink" >
    <symbol xmlns="http://www.w3.org/2000/svg" viewBox="0 0 464 464" id="award">
        <path d="M422.32 403.096l-48.68-62.584A70.461 70.461 0 00412.152 312c11.464-19.816 6.28-44 1.264-67.36A183.984 183.984 0 01408 208a183.924 183.924 0 015.416-36.672c4.984-23.376 10.2-47.544-1.264-67.328-11.872-20.512-35.776-28.104-58.896-35.432A171.326 171.326 0 01320 55.544a162.522 162.522 0 01-26.648-21.6C276.2 18.024 256.752 0 232 0s-44.2 18.024-61.36 33.936A162.563 162.563 0 01144 55.544a171.282 171.282 0 01-33.248 12.992c-23.12 7.328-47.024 14.92-58.896 35.432-11.464 19.816-6.28 44-1.264 67.36A183.923 183.923 0 0156 208a183.924 183.924 0 01-5.416 36.672c-4.984 23.376-10.2 47.544 1.264 67.328A70.465 70.465 0 0090.4 340.504l-48.72 62.584a8 8 0 007.312 12.848l57.2-7.144 14.12 49.408a8 8 0 006.168 5.656A8.16 8.16 0 00128 464a8 8 0 006.32-3.088l51.088-65.712A73.975 73.975 0 00232 416a73.975 73.975 0 0046.592-20.8l51.088 65.688a8 8 0 007.84 2.968 8 8 0 006.168-5.656l14.12-49.4 57.2 7.144a8 8 0 007.312-12.848zm-290.96 35.552L119.688 397.8a8 8 0 00-8.68-5.736l-44.8 5.6 40.152-51.616 4.424 1.416A171.277 171.277 0 01144 360.456a162.522 162.522 0 0126.648 21.6l2.752 2.544-42.04 54.048zM232 400c-18.48 0-34.024-14.4-50.488-29.664A176.344 176.344 0 00152 346.6a185.493 185.493 0 00-36.424-14.4c-21.144-6.712-41.12-13.048-49.888-28.2-8.368-14.472-4.048-34.64.536-56A195.908 195.908 0 0072 208a195.827 195.827 0 00-5.768-40c-4.584-21.352-8.904-41.52-.536-56 8.8-15.152 28.744-21.488 49.888-28.2A185.546 185.546 0 00152 69.4a176.336 176.336 0 0029.504-23.736C197.976 30.4 213.52 16 232 16s34.024 14.4 50.488 29.664A176.344 176.344 0 00312 69.4a185.493 185.493 0 0036.424 14.4c21.144 6.712 41.12 13.048 49.888 28.2 8.368 14.472 4.048 34.64-.536 56A195.908 195.908 0 00392 208a195.827 195.827 0 005.768 40c4.584 21.352 8.904 41.52.536 56-8.8 15.152-28.744 21.488-49.888 28.2A185.546 185.546 0 00312 346.6a176.336 176.336 0 00-29.504 23.736C266.024 385.6 250.48 400 232 400zm121.032-7.936a8 8 0 00-8.68 5.736l-11.712 40.848-42.032-54.04 2.752-2.544A162.563 162.563 0 01320 360.456a171.282 171.282 0 0133.248-12.992l4.424-1.416 40.16 51.616-44.8-5.6z"></path>
        <path d="M232 64c-79.529 0-144 64.471-144 144s64.471 144 144 144 144-64.471 144-144c-.092-79.491-64.509-143.907-144-144zm0 272c-70.692 0-128-57.308-128-128S161.308 80 232 80s128 57.308 128 128c-.084 70.658-57.342 127.916-128 128z"></path>
        <path d="M324.304 174.584A15.998 15.998 0 00311.376 168H262.4l-15.2-46.616c-2.759-8.395-11.801-12.963-20.196-10.204a16 16 0 00-10.204 10.204L201.64 168h-49.016c-8.837-.004-16.004 7.155-16.008 15.992a15.999 15.999 0 006.584 12.944l39.648 28.8-15.144 46.616c-2.732 8.404 1.867 17.431 10.27 20.162a16.002 16.002 0 0014.354-2.274L232 261.448l39.656 28.8a15.775 15.775 0 0018.816 0 15.768 15.768 0 005.808-17.888l-15.144-46.624 39.648-28.8c7.145-5.2 8.721-15.208 3.52-22.352zm-57.28 41.632a8.001 8.001 0 00-2.904 8.952l16.944 52.144-44.36-32.224a8 8 0 00-9.4 0l-44.36 32.224 16.936-52.144a8 8 0 00-2.904-8.944L152.624 184h54.824a8 8 0 007.608-5.528L232 126.328l16.944 52.136a8 8 0 007.608 5.528l54.824.008-44.352 32.216z"></path>
    </symbol>
    <symbol xmlns="http://www.w3.org/2000/svg" viewBox="0 0 488.152 488.152" id="calendar">
        <path d="M177.854 269.311c0-6.115-4.96-11.069-11.08-11.069h-38.665c-6.113 0-11.074 4.954-11.074 11.069v38.66c0 6.123 4.961 11.079 11.074 11.079h38.665c6.12 0 11.08-4.956 11.08-11.079v-38.66zm96.629 0c0-6.115-4.961-11.069-11.069-11.069h-38.67c-6.113 0-11.074 4.954-11.074 11.069v38.66c0 6.123 4.961 11.079 11.074 11.079h38.67c6.108 0 11.069-4.956 11.069-11.079v-38.66zm96.634 0c0-6.115-4.961-11.069-11.074-11.069h-38.665c-6.12 0-11.08 4.954-11.08 11.069v38.66c0 6.123 4.96 11.079 11.08 11.079h38.665c6.113 0 11.074-4.956 11.074-11.079v-38.66zM177.854 365.95c0-6.125-4.96-11.075-11.08-11.075h-38.665c-6.113 0-11.074 4.95-11.074 11.075v38.653c0 6.119 4.961 11.074 11.074 11.074h38.665c6.12 0 11.08-4.956 11.08-11.074V365.95zm96.629 0c0-6.125-4.961-11.075-11.069-11.075h-38.67c-6.113 0-11.074 4.95-11.074 11.075v38.653c0 6.119 4.961 11.074 11.074 11.074h38.67c6.108 0 11.069-4.956 11.069-11.074V365.95zm96.634 0c0-6.125-4.961-11.075-11.069-11.075h-38.67c-6.12 0-11.08 4.95-11.08 11.075v38.653c0 6.119 4.96 11.074 11.08 11.074h38.67c6.108 0 11.069-4.956 11.069-11.074V365.95z"></path>
        <path d="M440.254 54.354v59.05c0 26.69-21.652 48.198-48.338 48.198h-30.493c-26.688 0-48.627-21.508-48.627-48.198V54.142h-137.44v59.262c0 26.69-21.938 48.198-48.622 48.198H96.235c-26.685 0-48.336-21.508-48.336-48.198v-59.05c-23.323.703-42.488 20.002-42.488 43.723v346.061c0 24.167 19.588 44.015 43.755 44.015h389.82c24.131 0 43.755-19.889 43.755-44.015V98.077c0-23.721-19.164-43.02-42.487-43.723zm-14.163 368.234c0 10.444-8.468 18.917-18.916 18.917H80.144c-10.448 0-18.916-8.473-18.916-18.917V243.835c0-10.448 8.467-18.921 18.916-18.921h327.03c10.448 0 18.916 8.473 18.916 18.921l.001 178.753z"></path>
        <path d="M96.128 129.945h30.162c9.155 0 16.578-7.412 16.578-16.567V16.573C142.868 7.417 135.445 0 126.29 0H96.128C86.972 0 79.55 7.417 79.55 16.573v96.805c0 9.155 7.422 16.567 16.578 16.567zm264.907 0h30.162c9.149 0 16.572-7.412 16.572-16.567V16.573C407.77 7.417 400.347 0 391.197 0h-30.162c-9.154 0-16.577 7.417-16.577 16.573v96.805c0 9.155 7.423 16.567 16.577 16.567z"></path>
    </symbol>
    <symbol xmlns="http://www.w3.org/2000/svg" viewBox="0 0 64 64" id="call-center">
        <path d="M57 23h-3.025a22 22 0 00-43.95 0H7a5.006 5.006 0 00-5 5v8a5.006 5.006 0 005 5h4a3 3 0 003-3V26a3 3 0 00-1.959-2.8 19.974 19.974 0 0139.918 0A3 3 0 0050 26v12a3 3 0 002 2.816V44a13.005 13.005 0 01-12.155 12.957A4 4 0 0036 54h-8a4 4 0 000 8h8a4 4 0 003.872-3.044A15.006 15.006 0 0054 44v-3h3a5.006 5.006 0 005-5v-8a5.006 5.006 0 00-5-5zM8 39H7a3 3 0 01-3-3v-8a3 3 0 013-3h1zm4-1a1 1 0 01-1 1h-1V25h1a1 1 0 011 1zm24 22h-8a2 2 0 010-4h8a2 2 0 010 4zm18-21h-1a1 1 0 01-1-1V26a1 1 0 011-1h1zm6-3a3 3 0 01-3 3h-1V25h1a3 3 0 013 3z"></path>
        <path d="M46 32a14 14 0 10-14 14 14.015 14.015 0 0014-14zm-26 0a12 12 0 1112 12 12.013 12.013 0 01-12-12z"></path>
        <path d="M39.707 25.707l-1.414-1.414L32 30.586l-3.293-3.293-1.414 1.414L32 33.414l7.707-7.707z"></path>
    </symbol>
    <symbol xmlns="http://www.w3.org/2000/svg" viewBox="0 0 51.997 51.997" id="like">
        <path d="M 51.911 16.242 C 51.152 7.888 45.239 1.827 37.839 1.827 c -4.93 0 -9.444 2.653 -11.984 6.905 c -2.517 -4.307 -6.846 -6.906 -11.697 -6.906 c -7.399 0 -13.313 6.061 -14.071 14.415 c -0.06 0.369 -0.306 2.311 0.442 5.478 c 1.078 4.568 3.568 8.723 7.199 12.013 l 18.115 16.439 l 18.426 -16.438 c 3.631 -3.291 6.121 -7.445 7.199 -12.014 C 52.216 18.553 51.97 16.611 51.911 16.242 Z M 49.521 21.261 c -0.984 4.172 -3.265 7.973 -6.59 10.985 L 25.855 47.481 L 9.072 32.25 c -3.331 -3.018 -5.611 -6.818 -6.596 -10.99 c -0.708 -2.997 -0.417 -4.69 -0.416 -4.701 l 0.015 -0.101 C 2.725 9.139 7.806 3.826 14.158 3.826 c 4.687 0 8.813 2.88 10.771 7.515 l 0.921 2.183 l 0.921 -2.183 c 1.927 -4.564 6.271 -7.514 11.069 -7.514 c 6.351 0 11.433 5.313 12.096 12.727 C 49.938 16.57 50.229 18.264 49.521 21.261 Z"/>
    </symbol>
    <symbol xmlns="http://www.w3.org/2000/svg" viewBox="0 0 512 512" id="like-add">
        <path d="M462.3 62.6C407.5 15.9 326 24.3 275.7 76.2L256 96.5l-19.7-20.3C186.1 24.3 104.5 15.9 49.7 62.6c-62.8 53.6-66.1 149.8-9.9 207.9l193.5 199.8c12.5 12.9 32.8 12.9 45.3 0l193.5-199.8c56.3-58.1 53-154.3-9.8-207.9z"></path>
    </symbol>
    <symbol xmlns="http://www.w3.org/2000/svg" viewBox="0 0 451 451" id="search">
        <path d="M447.05 428l-109.6-109.6c29.4-33.8 47.2-77.9 47.2-126.1C384.65 86.2 298.35 0 192.35 0 86.25 0 .05 86.3.05 192.3s86.3 192.3 192.3 192.3c48.2 0 92.3-17.8 126.1-47.2L428.05 447c2.6 2.6 6.1 4 9.5 4s6.9-1.3 9.5-4c5.2-5.2 5.2-13.8 0-19zM26.95 192.3c0-91.2 74.2-165.3 165.3-165.3 91.2 0 165.3 74.2 165.3 165.3s-74.1 165.4-165.3 165.4c-91.1 0-165.3-74.2-165.3-165.4z"></path>
    </symbol>
    <symbol xmlns="http://www.w3.org/2000/svg" viewBox="0 0 31.012 31.012" id="mail">
        <path d="M28.512 26.529H2.5a2.503 2.503 0 01-2.5-2.5V6.982c0-1.379 1.122-2.5 2.5-2.5h26.012c1.378 0 2.5 1.121 2.5 2.5v17.047c0 1.379-1.122 2.5-2.5 2.5zM2.5 5.482c-.827 0-1.5.673-1.5 1.5v17.047c0 .827.673 1.5 1.5 1.5h26.012c.827 0 1.5-.673 1.5-1.5V6.982c0-.827-.673-1.5-1.5-1.5H2.5z"></path>
        <path d="M15.506 18.018c-.665 0-1.33-.221-1.836-.662L.891 6.219a.5.5 0 11.658-.754l12.778 11.137c.64.557 1.72.556 2.358 0L29.46 5.466a.497.497 0 01.706.049.5.5 0 01-.048.705L17.342 17.355c-.506.442-1.171.663-1.836.663z"></path>
    </symbol>
    <symbol xmlns="http://www.w3.org/2000/svg" viewBox="0 0 29.731 29.731" id="phone-call">
        <path d="M23.895 29.731c-1.237 0-2.731-.31-4.374-.93-3.602-1.358-7.521-4.042-11.035-7.556C4.971 17.73 2.287 13.81.928 10.208-.307 6.933-.31 4.245.921 3.015c.177-.177.357-.367.543-.563C2.587 1.271 3.856-.058 5.538.002 6.697.05 7.82.77 8.97 2.201c3.398 4.226 1.866 5.732.093 7.478l-.313.31c-.29.29-.838 1.633 4.26 6.731 1.664 1.664 3.083 2.882 4.217 3.619.714.464 1.991 1.166 2.515.642l.315-.318c1.744-1.769 3.25-3.296 7.473.099 1.431 1.15 2.15 2.272 2.198 3.433.069 1.681-1.27 2.953-2.452 4.075-.195.186-.385.366-.562.542-.611.612-1.588.919-2.819.919zM5.418 1C4.223 1 3.144 2.136 2.189 3.141c-.192.202-.378.398-.561.581-.917.916-.824 3.323.236 6.134 1.31 3.472 3.913 7.266 7.33 10.683 3.416 3.415 7.208 6.018 10.681 7.327 2.811 1.062 5.218 1.152 6.133.237.183-.183.379-.369.581-.56 1.027-.976 2.192-2.082 2.141-3.309-.035-.843-.649-1.75-1.825-2.695-3.519-2.83-4.503-1.831-6.135-.176l-.32.323c-.78.781-2.047.608-3.767-.51-1.193-.776-2.667-2.038-4.379-3.751-4.231-4.23-5.584-6.819-4.26-8.146l.319-.315c1.659-1.632 2.66-2.617-.171-6.138-.947-1.175-1.853-1.789-2.696-1.825L5.418 1z"></path>
    </symbol>
    <symbol xmlns="http://www.w3.org/2000/svg" viewBox="0 0 469.824 469.824" id="plant">
        <path d="M188.885 67.36C147.84 26.336 67.52 21.579 10.667 21.579 4.779 21.579 0 26.357 0 32.245c0 56.853 4.736 137.173 45.781 178.219 17.323 17.323 43.883 25.067 70.208 25.067 28.608 0 56.96-9.152 72.896-25.088 30.571-30.571 36.182-106.923 0-143.083zm-15.082 128.021c-22.827 22.805-86.208 26.709-112.917 0-33.131-33.13-38.87-100.437-39.489-152.405 51.968.619 119.275 6.357 152.405 39.488 26.71 26.709 22.806 90.112.001 112.917zM459.157 63.776c-56.853 0-137.173 4.736-178.219 45.781-36.181 36.16-30.571 112.512 0 143.083 15.936 15.915 44.267 25.067 72.875 25.067 26.325 0 52.864-7.723 70.229-25.045 41.024-41.045 45.781-121.365 45.781-178.219.001-5.888-4.778-10.667-10.666-10.667zm-50.24 173.781c-26.709 26.709-90.112 22.805-112.917 0-22.805-22.805-26.709-86.208 0-112.917 33.131-33.131 100.437-38.869 152.405-39.488-.618 51.989-6.357 119.296-39.488 152.405z"></path>
        <path d="M382.123 156.107c-2.517-5.355-9.728-7.189-15.04-4.715-81.813 38.464-122.005 105.536-140.267 174.485-22.592-146.603-87.936-191.296-115.648-210.261-3.456-2.368-6.144-4.096-7.637-5.568-4.16-4.16-10.923-4.16-15.083 0s-4.16 10.923 0 15.083c2.112 2.091 5.76 4.715 10.688 8.085 31.232 21.355 114.197 78.123 114.197 304.363 0 5.888 4.779 10.667 10.667 10.667s10.667-4.779 10.667-10.645c0-91.413 24.555-211.925 141.504-266.88 0-.021 1.728-.832 1.728-.832 5.312-2.518 6.741-8.449 4.224-13.782z"></path>
    </symbol>
    <symbol xmlns="http://www.w3.org/2000/svg" viewBox="0 0 129 129" id="right-arrow">
        <path d="M40.4 121.3c-.8.8-1.8 1.2-2.9 1.2s-2.1-.4-2.9-1.2c-1.6-1.6-1.6-4.2 0-5.8l51-51-51-51c-1.6-1.6-1.6-4.2 0-5.8 1.6-1.6 4.2-1.6 5.8 0l53.9 53.9c1.6 1.6 1.6 4.2 0 5.8l-53.9 53.9z"></path>
    </symbol>
    <symbol xmlns="http://www.w3.org/2000/svg" viewBox="-41 0 374 374.106" id="security">
        <path d="M287.664 75.746L147.06.824a6.986 6.986 0 00-6.657.04L3.688 75.784a7 7 0 00-3.633 6.14v97.868c.082 80.45 47.746 153.23 121.457 185.46l18.976 8.27a6.992 6.992 0 005.57.008l21.383-9.234c75.079-31.531 123.922-105.016 123.93-186.445V81.926a7.003 7.003 0 00-3.707-6.18zm-10.293 102.106c-.016 75.816-45.504 144.226-115.41 173.566l-.047.023-18.621 8.04-16.18-7.06C58.5 322.422 14.13 254.68 14.051 179.794V86.07l129.762-71.117L277.37 86.121zm0 0"></path>
        <path d="M92.168 175.254a7 7 0 00-9.871-.777 6.995 6.995 0 00-.777 9.867l36.976 43.3a6.998 6.998 0 009.738.887l86.118-70.062a7 7 0 00-8.836-10.86l-80.813 65.743zm0 0"></path>
    </symbol>
    <symbol xmlns="http://www.w3.org/2000/svg" viewBox="0 0 512 512" id="sewing-machine">
        <path d="M341.333 371.2c-5.12 0-8.533 3.413-8.533 8.533s3.413 8.533 8.533 8.533c5.12 0 8.533-3.413 8.533-8.533s-3.413-8.533-8.533-8.533zm0-145.067c-5.12 0-8.533 3.413-8.533 8.533s3.413 8.533 8.533 8.533c5.12 0 8.533-3.413 8.533-8.533s-3.413-8.533-8.533-8.533zM375.467 371.2c-5.12 0-8.533 3.413-8.533 8.533s3.413 8.533 8.533 8.533 8.533-3.413 8.533-8.533-3.413-8.533-8.533-8.533z"></path>
        <path d="M486.4 396.8c14.507 0 25.6-11.093 25.6-25.6V268.8c0-14.507-11.093-25.6-25.6-25.6s-25.6 11.093-25.6 25.6v42.667h-8.533v-51.2c-2.56-44.373-25.6-84.48-62.293-110.933-22.62-15.736-48.075-25.222-74.24-27.836V89.6h25.6c5.12 0 8.533-3.413 8.533-8.533s-3.413-8.533-8.533-8.533H332.8V38.4h8.533c5.12 0 8.533-3.413 8.533-8.533s-3.413-8.533-8.533-8.533h-68.267c-5.12 0-8.533 3.413-8.533 8.533s3.413 8.533 8.533 8.533h8.533v34.133h-8.533c-5.12 0-8.533 3.413-8.533 8.533s3.413 8.533 8.533 8.533h25.6v31.174a149.263 149.263 0 00-40.96 6.373l-89.6 26.453c-10.24 2.56-20.48 4.267-31.573 4.267h-5.973c-17.067 0-33.28-4.267-46.933-12.8-7.68-4.266-13.654-11.093-19.627-21.333-6.827-10.24-17.92-17.067-29.867-17.067C15.36 106.667 0 122.027 0 140.8v196.267c0 15.83 10.921 29.232 25.6 33.046V396.8c0 5.12 3.413 8.533 8.533 8.533 5.12 0 8.533-3.413 8.533-8.533v-26.688c14.679-3.814 25.6-17.216 25.6-33.046V320c0-23.893 18.773-42.667 42.667-42.667H230.4c8.533 0 17.92 2.56 25.6 6.827 18.773 11.093 28.16 34.133 22.187 56.32l-20.48 81.92H34.133C15.36 422.4 0 437.76 0 456.533c0 18.773 15.36 34.133 34.133 34.133h443.733c18.773 0 34.133-15.36 34.133-34.133 0-18.773-15.36-34.133-34.133-34.133h-25.6v-93.867h8.533V371.2c.001 14.507 11.094 25.6 25.601 25.6zM298.667 38.4h17.067v34.133h-17.067V38.4zm179.2 401.067c9.387 0 17.067 7.68 17.067 17.067s-7.68 17.067-17.067 17.067H34.133c-9.387 0-17.067-7.68-17.067-17.067s7.68-17.067 17.067-17.067h443.734zM275.627 422.4l19.627-77.653c7.68-29.867-5.12-60.587-29.867-75.093-10.24-5.973-22.187-9.387-34.133-9.387H111.787c-33.28 0-59.733 26.453-59.733 59.733v17.067c0 9.387-7.68 17.067-17.067 17.067s-17.067-7.68-17.067-17.067V140.8c0-9.387 7.68-17.067 17.067-17.067 5.973 0 11.093 3.413 14.507 8.533 7.68 12.8 15.36 21.333 25.6 27.307 17.067 10.24 35.84 15.36 55.467 15.36h5.973c12.8 0 24.747-1.707 36.693-5.12l89.6-26.453c40.107-11.947 82.773-4.267 116.907 19.627 33.28 23.04 52.907 58.88 55.467 98.133V422.4H275.627zm219.306-93.867V345.6h-17.067v-17.067h17.067zm-17.066-17.066V294.4h17.067v17.067h-17.067zm8.533 68.266c-5.12 0-8.533-3.413-8.533-8.533v-8.533h17.067v8.533c-.001 5.12-3.414 8.533-8.534 8.533zm0-119.466c5.12 0 8.533 3.413 8.533 8.533v8.533h-17.067V268.8c.001-5.12 3.414-8.533 8.534-8.533z"></path>
        <path d="M341.333 192c-23.893 0-42.667 18.773-42.667 42.667 0 23.893 18.773 42.667 42.667 42.667 23.893 0 42.667-18.773 42.667-42.667C384 210.773 365.227 192 341.333 192zm0 68.267c-14.507 0-25.6-11.093-25.6-25.6 0-14.507 11.093-25.6 25.6-25.6 14.507 0 25.6 11.093 25.6 25.6 0 14.506-11.093 25.6-25.6 25.6zm-221.866-51.2h51.2c5.12 0 8.533-3.413 8.533-8.533S175.787 192 170.667 192h-51.2c-5.12 0-8.533 3.413-8.533 8.533s3.413 8.534 8.533 8.534zm85.333 17.066h-85.333c-5.12 0-8.533 3.413-8.533 8.533s3.413 8.533 8.533 8.533H204.8c5.12 0 8.533-3.413 8.533-8.533s-3.413-8.533-8.533-8.533z"></path>
    </symbol>
    <symbol xmlns="http://www.w3.org/2000/svg" viewBox="0 0 33 33" id="shopping-bag">
        <path d="M28.313 33H4.688a.5.5 0 01-.5-.524L5.313 8.851a.5.5 0 01.5-.476h21.375a.5.5 0 01.5.476l1.125 23.625a.5.5 0 01-.5.524zM5.212 32h22.576L26.711 9.375H6.289L5.212 32z"></path>
        <path d="M21.905 11.375a.5.5 0 01-.5-.5v-4.97C21.405 3.201 19.205 1 16.5 1s-4.905 2.201-4.905 4.905v4.97a.5.5 0 01-1 0v-4.97C10.595 2.649 13.244 0 16.5 0s5.905 2.649 5.905 5.905v4.97a.5.5 0 01-.5.5z"></path>
    </symbol>
    <symbol xmlns="http://www.w3.org/2000/svg" viewBox="0 0 511.999 511.999" id="tick">
        <path d="M506.231 75.508c-7.689-7.69-20.158-7.69-27.849 0l-319.21 319.211L33.617 269.163c-7.689-7.691-20.158-7.691-27.849 0-7.69 7.69-7.69 20.158 0 27.849l139.481 139.481c7.687 7.687 20.16 7.689 27.849 0l333.133-333.136c7.69-7.691 7.69-20.159 0-27.849z"></path>
    </symbol>
    <symbol xmlns="http://www.w3.org/2000/svg" viewBox="0 0 60 60" id="time">
        <path d="M30 0C13.458 0 0 13.458 0 30s13.458 30 30 30 30-13.458 30-30S46.542 0 30 0zm0 58C14.561 58 2 45.439 2 30S14.561 2 30 2s28 12.561 28 28-12.561 28-28 28z"></path>
        <path d="M30 6a1 1 0 00-1 1v23H14a1 1 0 100 2h16a1 1 0 001-1V7a1 1 0 00-1-1z"></path>
    </symbol>
    <symbol xmlns="http://www.w3.org/2000/svg" viewBox="0 0 448 512" id="user">
        <path d="M313.6 288c-28.7 0-42.5 16-89.6 16-47.1 0-60.8-16-89.6-16C60.2 288 0 348.2 0 422.4V464c0 26.5 21.5 48 48 48h352c26.5 0 48-21.5 48-48v-41.6c0-74.2-60.2-134.4-134.4-134.4zM416 464c0 8.8-7.2 16-16 16H48c-8.8 0-16-7.2-16-16v-41.6C32 365.9 77.9 320 134.4 320c19.6 0 39.1 16 89.6 16 50.4 0 70-16 89.6-16 56.5 0 102.4 45.9 102.4 102.4V464zM224 256c70.7 0 128-57.3 128-128S294.7 0 224 0 96 57.3 96 128s57.3 128 128 128zm0-224c52.9 0 96 43.1 96 96s-43.1 96-96 96-96-43.1-96-96 43.1-96 96-96z"></path>
    </symbol>
    <symbol xmlns="http://www.w3.org/2000/svg" viewBox="0 0 448 512" id="inst">
        <path fill="#0abab5" d="M224.1 141c-63.6 0-114.9 51.3-114.9 114.9s51.3 114.9 114.9 114.9S339 319.5 339 255.9 287.7 141 224.1 141zm0 189.6c-41.1 0-74.7-33.5-74.7-74.7s33.5-74.7 74.7-74.7 74.7 33.5 74.7 74.7-33.6 74.7-74.7 74.7zm146.4-194.3c0 14.9-12 26.8-26.8 26.8-14.9 0-26.8-12-26.8-26.8s12-26.8 26.8-26.8 26.8 12 26.8 26.8zm76.1 27.2c-1.7-35.9-9.9-67.7-36.2-93.9-26.2-26.2-58-34.4-93.9-36.2-37-2.1-147.9-2.1-184.9 0-35.8 1.7-67.6 9.9-93.9 36.1s-34.4 58-36.2 93.9c-2.1 37-2.1 147.9 0 184.9 1.7 35.9 9.9 67.7 36.2 93.9s58 34.4 93.9 36.2c37 2.1 147.9 2.1 184.9 0 35.9-1.7 67.7-9.9 93.9-36.2 26.2-26.2 34.4-58 36.2-93.9 2.1-37 2.1-147.8 0-184.8zM398.8 388c-7.8 19.6-22.9 34.7-42.6 42.6-29.5 11.7-99.5 9-132.1 9s-102.7 2.6-132.1-9c-19.6-7.8-34.7-22.9-42.6-42.6-11.7-29.5-9-99.5-9-132.1s-2.6-102.7 9-132.1c7.8-19.6 22.9-34.7 42.6-42.6 29.5-11.7 99.5-9 132.1-9s102.7-2.6 132.1 9c19.6 7.8 34.7 22.9 42.6 42.6 11.7 29.5 9 99.5 9 132.1s2.7 102.7-9 132.1z" class=""></path>
    </symbol>
    <symbol xmlns="http://www.w3.org/2000/svg" viewBox="0 0 576 512" id="vk">
        <path fill="#0abab5" d="M545 117.7c3.7-12.5 0-21.7-17.8-21.7h-58.9c-15 0-21.9 7.9-25.6 16.7 0 0-30 73.1-72.4 120.5-13.7 13.7-20 18.1-27.5 18.1-3.7 0-9.4-4.4-9.4-16.9V117.7c0-15-4.2-21.7-16.6-21.7h-92.6c-9.4 0-15 7-15 13.5 0 14.2 21.2 17.5 23.4 57.5v86.8c0 19-3.4 22.5-10.9 22.5-20 0-68.6-73.4-97.4-157.4-5.8-16.3-11.5-22.9-26.6-22.9H38.8c-16.8 0-20.2 7.9-20.2 16.7 0 15.6 20 93.1 93.1 195.5C160.4 378.1 229 416 291.4 416c37.5 0 42.1-8.4 42.1-22.9 0-66.8-3.4-73.1 15.4-73.1 8.7 0 23.7 4.4 58.7 38.1 40 40 46.6 57.9 69 57.9h58.9c16.8 0 25.3-8.4 20.4-25-11.2-34.9-86.9-106.7-90.3-111.5-8.7-11.2-6.2-16.2 0-26.2.1-.1 72-101.3 79.4-135.6z" class=""></path>
    </symbol>
</svg>